PathFileType	4	(X/Y/Z)	 0.11m3min.trc
DataRate	CameraRate	NumFrames	NumMarkers	Units	OrigDataRate	OrigDataStartFrame	OrigNumFrames
200	200	9	43	m	200	876	1000
Frame#	Time	C7			LSH			RSH			MAN			RASI			LASI			HIPR			HIPL			RPSI			LPSI			COX			RTHI1			RTHI2			RTHI3			RTHI4			RLKN			RMKN			RSHA1			RSHA2			RSHA3			RSHA4			RLMAL			RMMAL			RHEEL			RMET5			RMET1			RTOE			LTHI1			LTHI2			LTHI3			LTHI4			LLKN			LMKN			LSHA1			LSHA2			LSHA3			LSHA4			LLMAL			LMMAL			LHEEL			LMET5			LMET1			LTOE			
		X1	Y1	Z1	X2	Y2	Z2	X3	Y3	Z3	X4	Y4	Z4	X5	Y5	Z5	X6	Y6	Z6	X7	Y7	Z7	X8	Y8	Z8	X9	Y9	Z9	X10	Y10	Z10	X11	Y11	Z11	X12	Y12	Z12	X13	Y13	Z13	X14	Y14	Z14	X15	Y15	Z15	X16	Y16	Z16	X17	Y17	Z17	X18	Y18	Z18	X19	Y19	Z19	X20	Y20	Z20	X21	Y21	Z21	X22	Y22	Z22	X23	Y23	Z23	X24	Y24	Z24	X25	Y25	Z25	X26	Y26	Z26	X27	Y27	Z27	X28	Y28	Z28	X29	Y29	Z29	X30	Y30	Z30	X31	Y31	Z31	X32	Y32	Z32	X33	Y33	Z33	X34	Y34	Z34	X35	Y35	Z35	X36	Y36	Z36	X37	Y37	Z37	X38	Y38	Z38	X39	Y39	Z39	X40	Y40	Z40	X41	Y41	Z41	X42	Y42	Z42	X43	Y43	Z43	
876	4.3800	-0.350067	1.471324	-0.557560	-0.289527	1.430986	-0.770763	-0.290249	1.434037	-0.348623	-0.206649	1.403640	-0.552978	-0.254787	0.955638	-0.427289	-0.242406	0.958786	-0.670022	-0.350136	1.003547	-0.384544	-0.333407	1.016435	-0.717882	-0.434439	0.972572	-0.510489	-0.427888	0.976594	-0.603152	-0.434144	0.974434	-0.556462	-0.299193	0.737940	-0.351881	-0.277455	0.682657	-0.344541	-0.215914	0.702762	-0.343445	-0.230093	0.762308	-0.350769	-0.199590	0.434394	-0.355455	-0.194190	0.421178	-0.470771	-0.315361	0.293893	-0.329360	-0.342129	0.262239	-0.340178	-0.291288	0.234036	-0.360524	-0.271063	0.267006	-0.352420	-0.428363	0.100697	-0.354405	-0.400559	0.090915	-0.446208	-0.486215	0.079754	-0.401181	-0.325197	0.029560	-0.318056	-0.280035	0.041141	-0.396058	-0.249482	0.030341	-0.394592	-0.288760	0.686172	-0.751307	-0.265753	0.629127	-0.753775	-0.203443	0.647863	-0.754381	-0.219042	0.705765	-0.752911	-0.227288	0.427347	-0.732822	-0.206664	0.417399	-0.625432	-0.356483	0.276150	-0.747950	-0.379382	0.243752	-0.738971	-0.326254	0.216486	-0.724960	-0.307955	0.255225	-0.736708	-0.442038	0.081142	-0.728513	-0.428540	0.085074	-0.634676	-0.511652	0.063861	-0.690482	-0.338559	0.025067	-0.755262	-0.299182	0.038720	-0.669997	-0.270058	0.027766	-0.667184	
877	4.3850	-0.350289	1.470859	-0.557611	-0.289646	1.431101	-0.770777	-0.290674	1.433859	-0.348647	-0.206642	1.403623	-0.552933	-0.253974	0.955287	-0.427379	-0.242095	0.958142	-0.669838	-0.349914	1.004546	-0.384852	-0.334001	1.016652	-0.717642	-0.433705	0.973275	-0.510199	-0.427037	0.977693	-0.602764	-0.433400	0.975157	-0.556137	-0.299143	0.737698	-0.351725	-0.277499	0.682386	-0.344358	-0.215950	0.702387	-0.343057	-0.230010	0.761961	-0.350415	-0.200002	0.433976	-0.355081	-0.193890	0.420418	-0.470147	-0.315788	0.293399	-0.329441	-0.342432	0.261701	-0.340307	-0.291526	0.233630	-0.360475	-0.271392	0.266576	-0.352356	-0.428605	0.100236	-0.354770	-0.400464	0.090474	-0.446545	-0.486317	0.079086	-0.401788	-0.325320	0.029560	-0.318100	-0.279963	0.041150	-0.396047	-0.249399	0.030352	-0.394532	-0.290049	0.685553	-0.750735	-0.267290	0.628492	-0.753097	-0.204870	0.646864	-0.754137	-0.220204	0.704936	-0.752972	-0.229412	0.426370	-0.732174	-0.207780	0.416803	-0.624848	-0.358016	0.274885	-0.746479	-0.380721	0.242540	-0.737411	-0.327467	0.215344	-0.723741	-0.309382	0.254099	-0.735558	-0.442780	0.079917	-0.727103	-0.428767	0.083494	-0.633324	-0.512146	0.062080	-0.688738	-0.338935	0.025230	-0.754937	-0.299172	0.038733	-0.669838	-0.269952	0.027768	-0.667353	
878	4.3900	-0.350493	1.471114	-0.557630	-0.289775	1.431933	-0.770761	-0.291106	1.434372	-0.348655	-0.206623	1.404279	-0.552893	-0.252975	0.955700	-0.427608	-0.241682	0.958238	-0.669671	-0.349206	1.006515	-0.385212	-0.334370	1.017757	-0.717377	-0.432827	0.974708	-0.509915	-0.426225	0.979361	-0.602553	-0.432529	0.976569	-0.555828	-0.299124	0.738129	-0.351594	-0.277635	0.682763	-0.344199	-0.216059	0.702580	-0.342744	-0.229934	0.762205	-0.350129	-0.200792	0.434101	-0.354756	-0.193975	0.420151	-0.469537	-0.316394	0.293278	-0.329473	-0.342873	0.261499	-0.340386	-0.291911	0.233610	-0.360401	-0.271906	0.266560	-0.352323	-0.428801	0.099993	-0.355007	-0.400347	0.090238	-0.446753	-0.486377	0.078679	-0.402268	-0.325402	0.029571	-0.318147	-0.279899	0.041155	-0.396028	-0.249339	0.030361	-0.394484	-0.291413	0.685526	-0.749987	-0.268878	0.628255	-0.752305	-0.206452	0.646458	-0.753811	-0.221548	0.704674	-0.752708	-0.231579	0.425958	-0.731379	-0.209345	0.416748	-0.624246	-0.359470	0.274368	-0.745095	-0.382094	0.241687	-0.735986	-0.328667	0.214740	-0.722544	-0.310825	0.253628	-0.734381	-0.443378	0.079045	-0.725893	-0.428919	0.082293	-0.632174	-0.512504	0.060749	-0.687235	-0.339258	0.025389	-0.754607	-0.299152	0.038744	-0.669698	-0.269862	0.027771	-0.667497	
879	4.3950	-0.350685	1.472091	-0.557622	-0.289895	1.433442	-0.770715	-0.291508	1.435570	-0.348655	-0.206604	1.405619	-0.552853	-0.251833	0.956862	-0.427932	-0.241188	0.959072	-0.669559	-0.348024	1.009171	-0.385513	-0.334424	1.019585	-0.717140	-0.431857	0.976703	-0.509631	-0.425322	0.981401	-0.602186	-0.431588	0.978520	-0.555535	-0.299141	0.739238	-0.351487	-0.277851	0.683785	-0.344096	-0.216234	0.703368	-0.342501	-0.229864	0.763057	-0.349910	-0.201938	0.434804	-0.354491	-0.194510	0.420459	-0.469000	-0.317207	0.293572	-0.329476	-0.343457	0.261662	-0.340399	-0.292438	0.234024	-0.360280	-0.272611	0.266993	-0.352293	-0.428909	0.099938	-0.355085	-0.400230	0.090255	-0.446801	-0.486371	0.078604	-0.402564	-0.325440	0.029579	-0.318178	-0.279848	0.041156	-0.395998	-0.249304	0.030368	-0.394450	-0.292877	0.686184	-0.749252	-0.270614	0.628766	-0.751485	-0.208082	0.646612	-0.753374	-0.222885	0.704833	-0.752503	-0.233842	0.426054	-0.730522	-0.211005	0.417140	-0.623598	-0.361120	0.274141	-0.743959	-0.383443	0.241379	-0.734761	-0.329852	0.214775	-0.721567	-0.312225	0.253680	-0.733416	-0.443818	0.078552	-0.724941	-0.429010	0.081493	-0.631271	-0.512727	0.059890	-0.686037	-0.339507	0.025523	-0.754292	-0.299125	0.038750	-0.669584	-0.269790	0.027775	-0.667606	
880	4.4000	-0.350875	1.473772	-0.557589	-0.290009	1.435608	-0.770648	-0.291853	1.437436	-0.348647	-0.206616	1.407657	-0.552814	-0.250601	0.958748	-0.428293	-0.240625	0.960639	-0.669530	-0.346429	1.012283	-0.385685	-0.334091	1.021970	-0.716949	-0.430830	0.979170	-0.509342	-0.424429	0.983600	-0.602132	-0.430614	0.980915	-0.555249	-0.299192	0.741026	-0.351406	-0.278150	0.685460	-0.344050	-0.216475	0.704756	-0.342328	-0.229805	0.764518	-0.349754	-0.203395	0.436100	-0.354295	-0.195555	0.421409	-0.468583	-0.318189	0.294331	-0.329406	-0.344197	0.262253	-0.340314	-0.293096	0.234887	-0.360087	-0.273491	0.267894	-0.352237	-0.428911	0.100098	-0.354993	-0.400116	0.090558	-0.446677	-0.486289	0.078922	-0.402635	-0.325434	0.029579	-0.318183	-0.279815	0.041156	-0.395953	-0.249298	0.030370	-0.394428	-0.294316	0.687487	-0.748467	-0.272436	0.629963	-0.750607	-0.209777	0.647412	-0.752955	-0.224268	0.705819	-0.752187	-0.236199	0.427127	-0.729715	-0.213183	0.418234	-0.622925	-0.362614	0.274733	-0.743014	-0.384831	0.241646	-0.733826	-0.331003	0.215331	-0.720799	-0.313653	0.254315	-0.732616	-0.444096	0.078417	-0.724283	-0.429046	0.081121	-0.630652	-0.512821	0.059536	-0.685189	-0.339675	0.025626	-0.754009	-0.299090	0.038752	-0.669498	-0.269736	0.027778	-0.667673	
881	4.4050	-0.351076	1.476137	-0.557529	-0.290096	1.438400	-0.770553	-0.292138	1.439961	-0.348638	-0.206662	1.410363	-0.552773	-0.249333	0.961314	-0.428652	-0.240008	0.962904	-0.669590	-0.344508	1.015716	-0.385708	-0.333382	1.024801	-0.716806	-0.429767	0.982068	-0.509052	-0.423536	0.986219	-0.601890	-0.429622	0.983711	-0.554981	-0.299281	0.743474	-0.351343	-0.278528	0.687761	-0.344054	-0.216776	0.706731	-0.342229	-0.229766	0.766572	-0.349662	-0.205160	0.437982	-0.354162	-0.197156	0.423036	-0.468330	-0.319325	0.295542	-0.329249	-0.345115	0.263295	-0.340168	-0.293893	0.236193	-0.359817	-0.274516	0.269281	-0.352154	-0.428803	0.100489	-0.354734	-0.400000	0.091152	-0.446373	-0.486141	0.079625	-0.402437	-0.325379	0.029579	-0.318166	-0.279800	0.041155	-0.395891	-0.249321	0.030371	-0.394418	-0.295749	0.689623	-0.747765	-0.274261	0.631857	-0.749860	-0.211497	0.648883	-0.752489	-0.225556	0.707350	-0.751783	-0.238618	0.428875	-0.728994	-0.215564	0.419900	-0.622206	-0.364235	0.275528	-0.742346	-0.386179	0.242515	-0.733206	-0.332202	0.216453	-0.720250	-0.315076	0.255529	-0.732069	-0.444216	0.078646	-0.723926	-0.429017	0.081178	-0.630319	-0.512788	0.059708	-0.684694	-0.339764	0.025705	-0.753765	-0.299047	0.038747	-0.669446	-0.269700	0.027781	-0.667697	
882	4.4100	-0.351298	1.479160	-0.557446	-0.290211	1.441808	-0.770444	-0.292370	1.443134	-0.348628	-0.206753	1.413738	-0.552736	-0.248059	0.964503	-0.428983	-0.239344	0.965816	-0.669728	-0.342366	1.019418	-0.385590	-0.332326	1.028038	-0.716705	-0.428690	0.985380	-0.508772	-0.422700	0.989197	-0.601572	-0.428619	0.986894	-0.554724	-0.299400	0.746544	-0.351289	-0.278977	0.690687	-0.344060	-0.217129	0.709276	-0.342208	-0.229745	0.769203	-0.349636	-0.207213	0.440430	-0.354081	-0.199316	0.425333	-0.468257	-0.320591	0.297209	-0.329008	-0.346153	0.264766	-0.339909	-0.294808	0.237943	-0.359469	-0.275656	0.271151	-0.351979	-0.428589	0.101155	-0.354301	-0.399865	0.092043	-0.445890	-0.485908	0.080723	-0.401985	-0.325268	0.029592	-0.318137	-0.279799	0.041152	-0.395812	-0.249369	0.030371	-0.394418	-0.296961	0.692444	-0.747086	-0.275974	0.634427	-0.748976	-0.213090	0.651087	-0.751927	-0.226632	0.709531	-0.751402	-0.241089	0.431366	-0.728205	-0.218434	0.422138	-0.621397	-0.365734	0.277041	-0.741930	-0.387419	0.243915	-0.732860	-0.333285	0.218143	-0.720068	-0.316399	0.257431	-0.731749	-0.444189	0.079239	-0.723848	-0.428913	0.081677	-0.630262	-0.512624	0.060412	-0.684518	-0.339771	0.025766	-0.753550	-0.298999	0.038732	-0.669428	-0.269684	0.027783	-0.667684	
883	4.4150	-0.351549	1.482804	-0.557334	-0.290379	1.445825	-0.770325	-0.292566	1.446946	-0.348624	-0.206887	1.417746	-0.552708	-0.246792	0.968265	-0.429261	-0.238627	0.969327	-0.669926	-0.340112	1.023399	-0.385362	-0.330991	1.031671	-0.716647	-0.427603	0.989108	-0.508509	-0.421852	0.992590	-0.601362	-0.427611	0.990493	-0.554470	-0.299550	0.750204	-0.351232	-0.279486	0.694198	-0.344060	-0.217524	0.712377	-0.342266	-0.229739	0.772381	-0.349673	-0.209547	0.443423	-0.354039	-0.202023	0.428250	-0.468343	-0.322002	0.299304	-0.328727	-0.347293	0.266636	-0.339557	-0.295793	0.240155	-0.359055	-0.276887	0.273489	-0.351715	-0.428286	0.102163	-0.353715	-0.399707	0.093234	-0.445244	-0.485548	0.082231	-0.401340	-0.325098	0.029623	-0.318105	-0.279802	0.041153	-0.395719	-0.249442	0.030373	-0.394430	-0.298062	0.695901	-0.746574	-0.277555	0.637815	-0.748382	-0.214558	0.653810	-0.751320	-0.227608	0.712392	-0.750818	-0.243739	0.434552	-0.727570	-0.221440	0.425095	-0.620638	-0.367203	0.279070	-0.741830	-0.388703	0.245695	-0.732855	-0.334405	0.220265	-0.719985	-0.317847	0.259692	-0.731572	-0.444033	0.080225	-0.724015	-0.428724	0.082612	-0.630451	-0.512320	0.061646	-0.684611	-0.339703	0.025820	-0.753356	-0.298943	0.038713	-0.669442	-0.269685	0.027782	-0.667643	
884	4.4200	-0.351834	1.487023	-0.557193	-0.290623	1.450438	-0.770200	-0.292752	1.451366	-0.348630	-0.207075	1.422355	-0.552695	-0.245544	0.972560	-0.429480	-0.237858	0.973399	-0.670151	-0.337845	1.027673	-0.385060	-0.329448	1.035697	-0.716627	-0.426510	0.993275	-0.508267	-0.420930	0.996417	-0.601100	-0.426585	0.994539	-0.554227	-0.299714	0.754414	-0.351161	-0.280042	0.698256	-0.344024	-0.217950	0.715984	-0.342398	-0.229743	0.776068	-0.349773	-0.212119	0.446927	-0.354026	-0.205203	0.431733	-0.468558	-0.323487	0.301805	-0.328357	-0.348503	0.268901	-0.339121	-0.296836	0.242786	-0.358580	-0.278183	0.276270	-0.351369	-0.427969	0.103605	-0.353025	-0.399498	0.094720	-0.444459	-0.485039	0.084103	-0.400535	-0.324872	0.029687	-0.318086	-0.279802	0.041158	-0.395612	-0.249535	0.030373	-0.394453	-0.298985	0.700013	-0.746138	-0.279028	0.641720	-0.747855	-0.215819	0.657130	-0.750588	-0.228371	0.715872	-0.750346	-0.246404	0.438265	-0.727060	-0.224794	0.428786	-0.619879	-0.368710	0.281462	-0.741922	-0.389895	0.247935	-0.732994	-0.335436	0.222886	-0.720146	-0.319078	0.262524	-0.731647	-0.443770	0.081603	-0.724388	-0.428427	0.083984	-0.630841	-0.511864	0.063433	-0.684899	-0.339570	0.025883	-0.753169	-0.298881	0.038693	-0.669486	-0.269701	0.027780	-0.667585	
